<svg width="100" height="60" xmlns="http://www.w3.org/2000/svg" style="animation-delay: 0s; animation-direction: normal; animation-duration: 0s; animation-fill-mode: none; animation-iteration-count: 1; animation-name: none; animation-play-state: running; animation-timing-function: ease; background-attachment: scroll; background-blend-mode: normal; background-clip: border-box; background-color: rgba(0, 0, 0, 0); background-image: none; background-origin: padding-box; background-position: 0% 0%; background-repeat: repeat; background-size: auto; border-bottom-color: rgb(51, 51, 51); border-bottom-left-radius: 0px; border-bottom-right-radius: 0px; border-bottom-style: none; border-bottom-width: 0px; border-collapse: separate; border-image-outset: 0px; border-image-repeat: stretch; border-image-slice: 100%; border-image-source: none; border-image-width: 1; border-left-color: rgb(51, 51, 51); border-left-style: none; border-left-width: 0px; border-right-color: rgb(51, 51, 51); border-right-style: none; border-right-width: 0px; border-top-color: rgb(51, 51, 51); border-top-left-radius: 0px; border-top-right-radius: 0px; border-top-style: none; border-top-width: 0px; bottom: auto; box-shadow: none; box-sizing: border-box; break-after: auto; break-before: auto; break-inside: auto; caption-side: top; clear: none; clip: auto; color: rgb(51, 51, 51); content: ; cursor: pointer; direction: ltr; display: inline; empty-cells: show; float: none; font-family: Roboto, sans-serif; font-kerning: auto; font-size: 14px; font-stretch: normal; font-style: normal; font-variant: normal; font-variant-ligatures: normal; font-variant-caps: normal; font-variant-numeric: normal; font-weight: normal; height: 60px; image-rendering: auto; isolation: auto; justify-items: normal; justify-self: auto; left: auto; letter-spacing: normal; line-height: 20px; list-style-image: none; list-style-position: outside; list-style-type: disc; margin-bottom: 0px; margin-left: 0px; margin-right: 0px; margin-top: 0px; max-height: none; max-width: none; min-height: 0px; min-width: 0px; mix-blend-mode: normal; object-fit: fill; object-position: 50% 50%; offset-distance: 0px; offset-path: none; offset-rotate: auto 0deg; opacity: 1; orphans: 2; outline-color: rgb(51, 51, 51); outline-offset: 0px; outline-style: none; outline-width: 0px; overflow-anchor: auto; overflow-wrap: normal; overflow-x: hidden; overflow-y: hidden; padding-bottom: 0px; padding-left: 0px; padding-right: 0px; padding-top: 0px; pointer-events: auto; position: static; resize: none; right: auto; scroll-behavior: auto; speak: normal; table-layout: auto; tab-size: 8; text-align: center; text-align-last: auto; text-decoration: none solid rgb(51, 51, 51); text-decoration-line: none; text-decoration-style: solid; text-decoration-color: rgb(51, 51, 51); text-decoration-skip: objects; text-underline-position: auto; text-indent: 0px; text-rendering: auto; text-shadow: none; text-size-adjust: 100%; text-overflow: clip; text-transform: none; top: auto; touch-action: auto; transition-delay: 0s; transition-duration: 0s; transition-property: all; transition-timing-function: ease; unicode-bidi: normal; vertical-align: baseline; visibility: visible; white-space: normal; widows: 2; width: 100px; will-change: auto; word-break: normal; word-spacing: 0px; word-wrap: normal; z-index: auto; zoom: 1; -webkit-appearance: none; backface-visibility: visible; -webkit-background-clip: border-box; -webkit-background-origin: padding-box; -webkit-border-horizontal-spacing: 0px; -webkit-border-image: none; -webkit-border-vertical-spacing: 0px; -webkit-box-align: stretch; -webkit-box-decoration-break: slice; -webkit-box-direction: normal; -webkit-box-flex: 0; -webkit-box-flex-group: 1; -webkit-box-lines: single; -webkit-box-ordinal-group: 1; -webkit-box-orient: horizontal; -webkit-box-pack: start; -webkit-box-reflect: none; column-count: auto; column-gap: normal; column-rule-color: rgb(51, 51, 51); column-rule-style: none; column-rule-width: 0px; column-span: none; column-width: auto; align-content: normal; align-items: normal; align-self: auto; flex-basis: auto; flex-grow: 0; flex-shrink: 1; flex-direction: row; flex-wrap: nowrap; justify-content: normal; -webkit-font-smoothing: auto; grid-auto-columns: auto; grid-auto-flow: row; grid-auto-rows: auto; grid-column-end: auto; grid-column-start: auto; grid-template-areas: none; grid-template-columns: none; grid-template-rows: none; grid-row-end: auto; grid-row-start: auto; grid-column-gap: 0px; grid-row-gap: 0px; -webkit-highlight: none; hyphens: manual; -webkit-hyphenate-character: auto; -webkit-line-break: auto; -webkit-line-clamp: none; -webkit-locale: &quot;en&quot;; -webkit-margin-before-collapse: collapse; -webkit-margin-after-collapse: collapse; -webkit-mask-box-image: none; -webkit-mask-box-image-outset: 0px; -webkit-mask-box-image-repeat: stretch; -webkit-mask-box-image-slice: 0 fill; -webkit-mask-box-image-source: none; -webkit-mask-box-image-width: auto; -webkit-mask-clip: border-box; -webkit-mask-composite: source-over; -webkit-mask-image: none; -webkit-mask-origin: border-box; -webkit-mask-position: 0% 0%; -webkit-mask-repeat: repeat; -webkit-mask-size: auto; order: 0; perspective: none; perspective-origin: 50px 30px; -webkit-print-color-adjust: economy; -webkit-rtl-ordering: logical; shape-outside: none; shape-image-threshold: 0; shape-margin: 0px; -webkit-tap-highlight-color: rgba(0, 0, 0, 0); -webkit-text-combine: none; -webkit-text-decorations-in-effect: none; -webkit-text-emphasis-color: rgb(51, 51, 51); -webkit-text-emphasis-position: over; -webkit-text-emphasis-style: none; -webkit-text-fill-color: rgb(51, 51, 51); -webkit-text-orientation: vertical-right; -webkit-text-security: none; -webkit-text-stroke-color: rgb(51, 51, 51); -webkit-text-stroke-width: 0px; transform: none; transform-origin: 50px 30px; transform-style: flat; -webkit-user-drag: auto; -webkit-user-modify: read-only; user-select: text; -webkit-writing-mode: horizontal-tb; -webkit-app-region: no-drag; buffered-rendering: auto; clip-path: none; clip-rule: nonzero; mask: none; filter: none; flood-color: rgb(0, 0, 0); flood-opacity: 1; lighting-color: rgb(255, 255, 255); stop-color: rgb(0, 0, 0); stop-opacity: 1; color-interpolation: sRGB; color-interpolation-filters: linearRGB; color-rendering: auto; fill: rgb(0, 0, 0); fill-opacity: 1; fill-rule: nonzero; marker-end: none; marker-mid: none; marker-start: none; mask-type: luminance; shape-rendering: auto; stroke: none; stroke-dasharray: none; stroke-dashoffset: 0px; stroke-linecap: butt; stroke-linejoin: miter; stroke-miterlimit: 4; stroke-opacity: 1; stroke-width: 1px; alignment-baseline: auto; baseline-shift: 0px; dominant-baseline: auto; text-anchor: start; writing-mode: horizontal-tb; vector-effect: none; paint-order: fill stroke markers; d: none; cx: 0px; cy: 0px; x: 0px; y: 0px; r: 0px; rx: auto; ry: auto; caret-color: rgb(51, 51, 51); line-break: auto;" version="1.1" xmlns:xlink="http://www.w3.org/1999/xlink"><style type="text/css">svg:not(:root) { overflow: hidden; }
* { box-sizing: border-box; }</style><svg xmlns="http://www.w3.org/2000/svg" viewBox="0 0 100 60">
<g fill="none" fill-rule="evenodd"><path d="M55.1 40c-.1-.3-.1-.6-.1-1h-3v1h3.1zm-.1-2v-1H23v1h32zm1.7 3.2c.6.5 1.3.8 2.3.8h2c.5-3.1 3.2-5.4 6.4-5.4s5.9 2.3 6.4 5.5h1.7c.2 0 .4 0 .6.1 1.2 0 2.9.1 3.6-.8.5-.7.4-1.8-.3-3.4l-13-14.6c-.6-.7-2-1.2-2.2-1.2h-6.7c-.9 0-1.3.3-1.5.9v11.8l.7 6.3zM31 39h-6v2.5l3.6.9c.2-1.5 1.1-2.8 2.4-3.4zm6.1 2.2l2.9-1V39h-5c1 .5 1.7 1.3 2.1 2.2zM41 40v2h10v-3H41v1z"/><path d="M52 39v1h3.1c-.1-.3-.1-.6-.1-1h-3zm3-2H23v1h32v-1z"/><path d="M67.5 47.6c-2.5 0-4.5-2-4.5-4.5s2-4.5 4.5-4.5 4.5 2 4.5 4.5-2.1 4.5-4.5 4.5zm0-8c-1.9 0-3.5 1.6-3.5 3.5s1.6 3.5 3.5 3.5S71 45 71 43.1s-1.6-3.5-3.5-3.5zM68 33h-8c-1.6 0-2-.1-2-1.5V26h1v6h9v1z" fill="#333333" class="svg-line"/><path d="M80.4 37.4c0-.1-.1-.1 0 0L67.2 22.5c-.8-1-2.5-1.5-3-1.5h-6.7c-.6 0-1.1.1-1.5.3v-7.8c0-.3-.2-.5-.5-.5h-36c-.3 0-.5.2-.5.5V37h3v1.5c0 .3.2.5.5.5H24v2.9c0 .2.2.4.4.5l4.2 1c.2 2.3 2.1 4.1 4.5 4.1 2.5 0 4.5-2 4.5-4.5 0-.3 0-.5-.1-.8l2.6-.9v1.2c0 .3.2.5.5.5h11c.3 0 .5-.2.5-.5V41h3.4c.2.3.3.6.6.8.7.7 1.8 1.1 3 1.1h2.5c.3 0 .5-.2.5-.4.3-2.8 2.6-5 5.5-5 2.8 0 5.2 2.2 5.5 5 0 .3.2.5.5.5h3.5c1.3 0 2.9-.2 3.6-1.3.6-.8.5-2.3-.3-4.3zM20 36V14h35v22H20zm5 5.5V39h6c-1.3.6-2.2 1.9-2.4 3.3l-3.6-.8zm8 5c-1.9 0-3.5-1.6-3.5-3.5s1.6-3.5 3.5-3.5 3.5 1.6 3.5 3.5-1.6 3.5-3.5 3.5zm7-6.2l-2.9 1c-.4-1-1.2-1.8-2.1-2.2h5v1.2zm11-.3v2H41v-3h10v1zm.5-2H23v-1h32v1h-3.5zm.5 2v-1h3c0 .4 0 .7.1 1H52zm4-1V22.9c.2-.6.6-.9 1.5-.9h6.7c.3 0 1.6.4 2.2 1.2l13 14.6c.6 1.6.7 2.8.3 3.4-.6.9-2.3.8-3.6.8h-2.2c-.5-3.1-3.2-5.5-6.4-5.5s-5.9 2.3-6.4 5.4h-2c-1 0-1.7-.3-2.3-.8-.1.1-.8-.5-.8-2.1z" fill="#333333" class="svg-line"/></g>                                        </svg></svg>